<svg width="48" height="53" viewBox="0 0 48 53" fill="none" xmlns="http://www.w3.org/2000/svg">
<rect x="0.888916" width="46.6667" height="53" fill="#323238"/>
<path d="M36.0311 26.5807C36.0311 19.2176 30.7767 13.25 24.2934 13.25C17.8101 13.25 12.5557 19.2176 12.5557 26.5807C12.5557 33.2357 16.8473 38.7502 22.4594 39.75V30.4341H19.4791V26.5807H22.4594V23.6438C22.4594 20.3033 24.2109 18.4573 26.8931 18.4573C28.1769 18.4573 29.5204 18.7177 29.5204 18.7177V21.9983H28.0394C26.5813 21.9983 26.1274 23.0267 26.1274 24.0812V26.5807H29.3828L28.8624 30.4341H26.1274V39.75C31.7395 38.7502 36.0311 33.2357 36.0311 26.5807Z" fill="white"/>
</svg>
