<svg width="48" height="53" viewBox="0 0 48 53" fill="none" xmlns="http://www.w3.org/2000/svg">
<rect x="0.444336" width="46.6667" height="53" fill="#323238"/>
<g clip-path="url(#clip0_61385:216)">
<path d="M22.5372 39.7499C21.4609 39.7499 20.2039 39.7433 18.9633 39.6626C17.1482 39.709 15.3903 38.9405 14.0711 37.5239C12.8235 36.0262 12.1468 34.0299 12.1879 31.9688C12.1111 30.3755 12.1111 28.7645 12.1111 27.2065C12.1111 26.971 12.1111 26.7354 12.1111 26.4999C12.1111 26.2643 12.1111 26.0288 12.1111 25.7932C12.1111 24.2352 12.1111 22.6243 12.1879 21.032C12.147 18.9706 12.8237 16.9741 14.0711 15.4759C15.3903 14.0593 17.1482 13.2907 18.9633 13.3371C20.2078 13.2565 21.4609 13.2499 22.5372 13.2499H25.0193C26.0955 13.2499 27.3526 13.2565 28.5941 13.3371C30.409 13.2904 32.1667 14.059 33.4854 15.4759C34.7327 16.9741 35.4094 18.9706 35.3686 21.032C35.4444 22.6243 35.4444 24.2352 35.4444 25.7943C35.4444 26.0299 35.4444 26.2654 35.4444 26.501C35.4444 26.7365 35.4444 26.9717 35.4444 27.2065C35.4444 28.7645 35.4444 30.3755 35.3676 31.9699C35.4087 34.0311 34.732 36.0273 33.4844 37.525C32.1657 38.9418 30.408 39.7104 28.5932 39.6638C27.3477 39.7444 26.0946 39.751 25.0183 39.751L22.5372 39.7499Z" fill="white"/>
<path d="M29.228 20.7456C29.4579 20.9201 29.7282 21.0132 30.0047 21.0132L30.0057 21.0143C30.3764 21.0138 30.7318 20.8461 30.9937 20.5482C31.2557 20.2503 31.4028 19.8465 31.4028 19.4254C31.4028 19.1114 31.3208 18.8044 31.1672 18.5433C31.0136 18.2822 30.7952 18.0787 30.5398 17.9585C30.2843 17.8383 30.0032 17.8069 29.732 17.8682C29.4608 17.9294 29.2117 18.0806 29.0162 18.3027C28.8206 18.5248 28.6875 18.8077 28.6336 19.1157C28.5796 19.4237 28.6073 19.7429 28.7131 20.0331C28.8189 20.3232 28.9981 20.5712 29.228 20.7456Z" fill="#323238"/>
<path fill-rule="evenodd" clip-rule="evenodd" d="M23.778 33.2968C22.5943 33.2966 21.4373 32.8977 20.4532 32.1507C19.4691 31.4037 18.7021 30.342 18.2493 29.1C17.7964 27.8579 17.678 26.4912 17.9091 25.1728C18.1401 23.8543 18.7102 22.6433 19.5473 21.6928C20.3843 20.7422 21.4507 20.095 22.6117 19.8328C23.7726 19.5706 24.976 19.7053 26.0695 20.2198C27.1631 20.7343 28.0978 21.6055 28.7554 22.7233C29.413 23.8411 29.764 25.1552 29.764 26.4995C29.7624 28.302 29.1312 30.0302 28.009 31.3048C26.8867 32.5793 25.3651 33.295 23.778 33.2968ZM23.7779 22.0834C23.0088 22.0834 22.2569 22.3425 21.6174 22.8278C20.9778 23.3131 20.4794 24.0029 20.1851 24.8099C19.8907 25.617 19.8137 26.505 19.9638 27.3617C20.1138 28.2185 20.4842 29.0055 21.0281 29.6232C21.5719 30.2408 22.2649 30.6615 23.0192 30.8319C23.7736 31.0023 24.5555 30.9149 25.2661 30.5806C25.9767 30.2463 26.5841 29.6802 27.0114 28.9539C27.4387 28.2275 27.6668 27.3736 27.6668 26.5001C27.6668 25.3287 27.2571 24.2053 26.5278 23.377C25.7985 22.5488 24.8093 22.0834 23.7779 22.0834Z" fill="#323238"/>
</g>
<defs>
<clipPath id="clip0_61385:216">
<rect width="23.3333" height="26.5" fill="white" transform="translate(12.1111 13.2499)"/>
</clipPath>
</defs>
</svg>
