<svg width="47" height="53" viewBox="0 0 47 53" fill="none" xmlns="http://www.w3.org/2000/svg">
<rect x="0.333252" width="46.6667" height="53" fill="#323238"/>
<g clip-path="url(#clip0_61385:205)">
<path d="M35.9993 18.6003C35.1004 19.0316 34.1477 19.316 33.1721 19.4444C34.2009 18.7759 34.9708 17.724 35.3381 16.4849C34.3724 17.111 33.3145 17.5517 32.2109 17.7875C31.5367 17.0019 30.66 16.4551 29.6952 16.2184C28.7305 15.9818 27.7224 16.0663 26.8025 16.4609C25.8826 16.8556 25.0937 17.542 24.5386 18.4306C23.9835 19.3193 23.6881 20.369 23.6909 21.4426C23.689 21.8535 23.7317 22.2632 23.8181 22.6632C21.8581 22.5578 19.9406 22.0047 18.1908 21.0403C16.4411 20.0758 14.8985 18.7215 13.6636 17.0659C13.0337 18.2445 12.8413 19.6396 13.1258 20.9668C13.4103 22.2941 14.1502 23.4537 15.1948 24.2094C14.4098 24.1883 13.6414 23.9589 12.9568 23.5411V23.6076C12.9563 24.8435 13.35 26.0414 14.071 26.9979C14.7921 27.9544 15.7959 28.6104 16.912 28.8545C16.4892 28.979 16.053 29.0421 15.6148 29.0421C15.3042 29.0427 14.9942 29.0096 14.6896 28.9431C15.0043 30.006 15.6172 30.9356 16.4426 31.6017C17.2679 32.2678 18.2645 32.6372 19.2929 32.6581C17.5481 34.1469 15.3921 34.954 13.1728 34.9494C12.7802 34.9489 12.3879 34.9232 11.998 34.8726C14.2406 36.4566 16.8598 37.2967 19.5353 37.2902C21.3808 37.3042 23.2105 36.9199 24.9181 36.1596C26.6256 35.3992 28.1769 34.278 29.4817 32.8611C30.7865 31.4443 31.8189 29.76 32.5187 27.9062C33.2186 26.0524 33.572 24.066 33.5585 22.0627C33.5585 21.8308 33.5585 21.5989 33.5429 21.3723C34.5068 20.614 35.3386 19.6753 35.9993 18.6003V18.6003Z" fill="white"/>
</g>
<defs>
<clipPath id="clip0_61385:205">
<rect width="24" height="21.2" fill="white" transform="translate(12 16.089)"/>
</clipPath>
</defs>
</svg>
