<svg width="47" height="53" viewBox="0 0 47 53" fill="none" xmlns="http://www.w3.org/2000/svg">
<rect width="46.6667" height="53" fill="#323238"/>
<g clip-path="url(#clip0_61385:212)">
<path d="M35.5106 20.7703C35.5539 19.6348 35.2129 18.5254 34.5624 17.6856C33.9119 16.8459 33.0051 16.3442 32.0409 16.2909C29.4437 16.1475 26.7952 16.089 24.09 16.089H23.2466C20.5466 16.089 17.8929 16.1445 15.2957 16.2909C14.3313 16.3479 13.4253 16.8523 12.7759 17.6938C12.1265 18.5353 11.7865 19.6455 11.8303 20.7814C11.7137 22.7506 11.6615 24.7117 11.6666 26.6779C11.6717 28.6441 11.7137 30.6082 11.826 32.5794C11.7803 33.7171 12.1192 34.8297 12.7685 35.6737C13.4179 36.5178 14.3247 37.0246 15.2906 37.0831C18.0189 37.2325 20.8183 37.2981 23.664 37.293C26.5143 37.3038 29.3055 37.2338 32.0375 37.0831C33.0034 37.0256 33.9107 36.5199 34.5608 35.6766C35.2109 34.8333 35.5508 33.7212 35.5063 32.5835C35.6186 30.6123 35.67 28.6471 35.6657 26.6769C35.6749 24.708 35.6232 22.7391 35.5106 20.7703ZM21.3677 32.093V21.2457L28.1657 26.6668L21.3677 32.093Z" fill="white"/>
</g>
<defs>
<clipPath id="clip0_61385:212">
<rect width="24" height="21.2" fill="white" transform="translate(11.6667 16.089)"/>
</clipPath>
</defs>
</svg>
